<svg width="254" height="520" viewBox="0 0 254 520" fill="none" xmlns="http://www.w3.org/2000/svg">
<line x1="34.1039" y1="13.5109" x2="227.104" y2="54.5109" stroke="white"/>
<circle cx="24.5" cy="10.5" r="10.5" fill="#EE2327" fill-opacity="0.6"/>
<circle cx="231" cy="56" r="4" fill="#EE2327" fill-opacity="0.6"/>
<line x1="15.8887" y1="143.513" x2="212.889" y2="98.5126" stroke="white"/>
<line x1="214.653" y1="94.3599" x2="158.653" y2="40.3599" stroke="white"/>
<circle cx="217.5" cy="97.5" r="4.5" fill="#EE2327" fill-opacity="0.6"/>
<line x1="16.0355" y1="145.501" x2="227.035" y2="160.501" stroke="white"/>
<circle cx="9.05223" cy="145.052" r="6.8178" transform="rotate(-24.8594 9.05223 145.052)" fill="#EE2327" fill-opacity="0.6"/>
<line x1="228.195" y1="164.461" x2="27.1947" y2="249.461" stroke="white"/>
<line x1="27.1147" y1="252.513" x2="235.115" y2="301.513" stroke="white"/>
<line x1="144.263" y1="292.425" x2="29.2627" y2="363.425" stroke="white"/>
<line x1="41.1536" y1="355.524" x2="230.154" y2="416.524" stroke="white"/>
<line x1="231.119" y1="426.486" x2="39.1189" y2="473.486" stroke="white"/>
<line x1="40.1103" y1="476.512" x2="208.11" y2="514.512" stroke="white"/>
<circle cx="237.941" cy="160.941" r="10.5" transform="rotate(-24.8594 237.941 160.941)" fill="#EE2327" fill-opacity="0.6"/>
<circle cx="150.941" cy="285.941" r="10.5" transform="rotate(-24.8594 150.941 285.941)" fill="#9A2125"/>
<circle cx="239.941" cy="419.941" r="10.5" transform="rotate(-24.8594 239.941 419.941)" fill="#EE2327" fill-opacity="0.6"/>
<circle cx="239.5" cy="303.5" r="4.5" fill="#EE2327" fill-opacity="0.6"/>
<circle cx="212.5" cy="515.5" r="4.5" fill="#EE2327" fill-opacity="0.6"/>
<circle cx="35.5" cy="475.5" r="4.5" fill="#EE2327" fill-opacity="0.6"/>
<circle cx="21.5" cy="367.5" r="8.5" fill="#EE2327" fill-opacity="0.6"/>
<circle cx="21.0522" cy="252.052" r="6.8178" transform="rotate(-24.8594 21.0522 252.052)" fill="#EE2327" fill-opacity="0.6"/>
</svg>
